<?xml version="1.0" standalone="no"?><!DOCTYPE svg PUBLIC "-//W3C//DTD SVG 1.1//EN" "http://www.w3.org/Graphics/SVG/1.1/DTD/svg11.dtd"><svg t="1616552006157" class="icon" viewBox="0 0 1024 1024" version="1.1" xmlns="http://www.w3.org/2000/svg" p-id="1783" xmlns:xlink="http://www.w3.org/1999/xlink" width="200" height="200"><defs><style type="text/css"></style></defs><path d="M512 1020c-2.4 0-4-0.8-6.4-1.6C276 919.2 168 785.6 118.4 692 63.2 588.8 64 509.6 64 506.4V148c0-8 5.6-14.4 13.6-16C268.8 101.6 416 46.4 505.6 5.6c4-1.6 8.8-1.6 13.6 0 89.6 40.8 236 96 428 126.4 8 1.6 13.6 8 13.6 16v358.4c0 3.2 0.8 82.4-54.4 185.6-50.4 94.4-157.6 227.2-387.2 327.2-3.2 0-4.8 0.8-7.2 0.8zM96 161.6v344.8c0 3.2 2.4 297.6 416 480 415.2-183.2 416-476.8 416-480V161.6C744 131.2 601.6 78.4 512 37.6 422.4 78.4 280 131.2 96 161.6z" p-id="1784"></path><path d="M312.8 447.2v-42.4h48.8c10.4-38.4 29.6-68.8 57.6-92 28-23.2 62.4-34.4 103.2-34.4 50.4 0 93.6 20 128.8 60.8l-44.8 58.4c-24.8-29.6-53.6-44.8-86.4-44.8-37.6 0-63.2 17.6-77.6 52h116.8v42.4H433.6c0 3.2-0.8 8-0.8 15.2 0 6.4 0 11.2 0.8 14.4H560v42.4H444.8c8 16 19.2 28 32.8 36 13.6 8 29.6 12.8 45.6 12.8 32.8 0 60-13.6 81.6-40l46.4 51.2c-18.4 20.8-39.2 36.8-62.4 47.2-24 10.4-47.2 15.2-70.4 15.2-37.6 0-71.2-11.2-99.2-33.6-28-22.4-47.2-52-57.6-89.6h-48.8v-42.4h42.4c0-3.2-0.8-8-0.8-14.4s0-12 0.8-15.2h-42.4z" p-id="1785"></path></svg>