<?xml version="1.0" standalone="no"?><!DOCTYPE svg PUBLIC "-//W3C//DTD SVG 1.1//EN" "http://www.w3.org/Graphics/SVG/1.1/DTD/svg11.dtd"><svg t="1616552032385" class="icon" viewBox="0 0 1024 1024" version="1.1" xmlns="http://www.w3.org/2000/svg" p-id="2508" xmlns:xlink="http://www.w3.org/1999/xlink" width="200" height="200"><defs><style type="text/css"></style></defs><path d="M600 1020H424c-8.8 0-16-7.2-16-16v-59.2c-45.6-11.2-88-28.8-128-53.6l-42.4 42.4c-3.2 3.2-7.2 4.8-11.2 4.8-4 0-8-1.6-11.2-4.8l-124.8-124.8c-3.2-3.2-4.8-7.2-4.8-11.2 0-4 1.6-8 4.8-11.2l42.4-42.4c-24.8-40-42.4-83.2-53.6-128H20c-8.8 0-16-7.2-16-16V424c0-8.8 7.2-16 16-16h59.2c11.2-45.6 28.8-88 53.6-128l-42.4-42.4c-6.4-6.4-6.4-16 0-22.4l124.8-124.8c6.4-6.4 16-6.4 22.4 0l42.4 42.4c40-24.8 83.2-42.4 128-53.6V20c0-8.8 7.2-16 16-16h176c8.8 0 16 7.2 16 16v59.2c45.6 11.2 88 28.8 128 53.6l42.4-42.4c6.4-6.4 16.8-6.4 22.4 0l124.8 124.8c3.2 3.2 4.8 7.2 4.8 11.2 0 4-1.6 8-4.8 11.2l-42.4 42.4c24.8 40 42.4 83.2 53.6 128h59.2c8.8 0 16 7.2 16 16v176c0 8.8-7.2 16-16 16h-59.2c-11.2 45.6-28.8 88-53.6 128l42.4 42.4c3.2 3.2 4.8 7.2 4.8 11.2 0 4-1.6 8-4.8 11.2l-124.8 124.8c-6.4 6.4-16 6.4-22.4 0l-42.4-42.4c-40 24.8-83.2 42.4-128 53.6v59.2c0 8.8-7.2 16-16 16z m-160-32h144v-56c0-7.2 5.6-14.4 12.8-16 50.4-10.4 97.6-30.4 140.8-58.4 6.4-4 14.4-3.2 20 2.4l40 40 101.6-101.6-40-40c-5.6-5.6-6.4-13.6-2.4-20 28-43.2 48-90.4 58.4-140.8 1.6-7.2 8-12.8 16-12.8h56V440h-56c-7.2 0-14.4-5.6-16-12.8-10.4-50.4-30.4-97.6-58.4-140.8-4-6.4-3.2-14.4 2.4-20l40-40-101.6-101.6-40 40c-5.6 5.6-13.6 6.4-20 2.4-43.2-28-90.4-48-140.8-58.4-7.2-1.6-12.8-8-12.8-16v-56H440v56c0 7.2-5.6 14.4-12.8 16-50.4 10.4-97.6 30.4-140.8 58.4-6.4 4-14.4 3.2-20-2.4l-40-40-101.6 101.6 40 40c5.6 5.6 6.4 13.6 2.4 20-28 43.2-48 90.4-58.4 140.8-1.6 7.2-8 12.8-16 12.8h-56v144h56c7.2 0 14.4 5.6 16 12.8 10.4 50.4 30.4 97.6 58.4 140.8 4 6.4 3.2 14.4-2.4 20l-40 40 101.6 101.6 40-40c5.6-5.6 13.6-6.4 20-2.4 43.2 28 90.4 48 140.8 58.4 7.2 1.6 12.8 8 12.8 16v56.8z" p-id="2509"></path><path d="M512 780c-148 0-268-120-268-268s120-268 268-268 268 120 268 268-120 268-268 268z m0-520c-139.2 0-252 112.8-252 252S372.8 764 512 764 764 651.2 764 512 651.2 260 512 260z" p-id="2510"></path><path d="M502.4 696.8V664c-40.8-4-77.6-20-109.6-48.8l32.8-38.4c24.8 21.6 50.4 34.4 76.8 38.4V528.8c-33.6-8-58.4-18.4-73.6-32s-23.2-32.8-23.2-58.4 8.8-46.4 27.2-63.2c17.6-16 41.6-25.6 70.4-26.4v-22.4h28.8v22.4c32.8 2.4 63.2 13.6 92.8 33.6l-28.8 40.8c-20-13.6-40.8-22.4-64-25.6v84h1.6c34.4 8 59.2 19.2 75.2 32.8 16 13.6 24 33.6 24 59.2 0 26.4-9.6 47.2-28 63.2s-42.4 25.6-72.8 26.4v32h-29.6z m-32-288c-7.2 6.4-11.2 15.2-11.2 24.8s3.2 17.6 8.8 24c5.6 5.6 17.6 11.2 33.6 16.8v-76.8c-12.8 0.8-23.2 4.8-31.2 11.2z m94.4 196c8-7.2 12.8-15.2 12.8-25.6 0-10.4-3.2-18.4-9.6-24.8-6.4-6.4-18.4-12-36.8-16.8v80c13.6-2.4 24.8-6.4 33.6-12.8z" p-id="2511"></path></svg>