<?xml version="1.0" standalone="no"?><!DOCTYPE svg PUBLIC "-//W3C//DTD SVG 1.1//EN" "http://www.w3.org/Graphics/SVG/1.1/DTD/svg11.dtd"><svg t="1616552048257" class="icon" viewBox="0 0 1024 1024" version="1.1" xmlns="http://www.w3.org/2000/svg" p-id="2640" xmlns:xlink="http://www.w3.org/1999/xlink" width="200" height="200"><defs><style type="text/css"></style></defs><path d="M292 644.8c-0.8 0-0.8 0 0 0-3.2 0-5.6-1.6-7.2-4-22.4-39.2-34.4-84-34.4-128.8C250.4 368 368 250.4 512 250.4 656 250.4 773.6 368 773.6 512c0 44.8-12 89.6-34.4 128.8-1.6 2.4-4 4-6.4 4-2.4 0-4.8-0.8-7.2-3.2-52.8-62.4-131.2-99.2-213.6-99.2s-160.8 36-214.4 100c-1.6 1.6-4 2.4-5.6 2.4zM512 526.4c83.2 0 162.4 35.2 218.4 96.8 17.6-34.4 26.4-72.8 26.4-111.2 0-135.2-110.4-245.6-245.6-245.6S265.6 376.8 265.6 512c0 38.4 8.8 76.8 26.4 111.2 57.6-61.6 136.8-96.8 220-96.8z" p-id="2641"></path><path d="M592.8 1020H431.2c-8.8 0-16-7.2-16-16v-64c-48.8-11.2-95.2-30.4-136.8-56.8l-44.8 44.8c-6.4 6.4-16 6.4-22.4 0l-114.4-114.4c-6.4-6.4-6.4-16 0-22.4l44.8-44.8c-26.4-42.4-45.6-88-56.8-136.8h-64c-8.8 0-16-7.2-16-16V431.2c0-8.8 7.2-16 16-16h64c11.2-48.8 30.4-95.2 56.8-136.8l-44.8-44.8c-6.4-6.4-6.4-16 0-22.4l114.4-114.4c6.4-6.4 16-6.4 22.4 0l44.8 44.8c42.4-26.4 88-45.6 136.8-56.8v-64c0-8.8 7.2-16 16-16h162.4c8.8 0 16 7.2 16 16v64c48.8 11.2 95.2 30.4 136.8 56.8l44.8-44.8c6.4-6.4 16-6.4 22.4 0L928 211.2c6.4 6.4 6.4 16 0 22.4l-44.8 44.8c26.4 42.4 45.6 88 56.8 136.8h64c8.8 0 16 7.2 16 16v162.4c0 8.8-7.2 16-16 16h-64c-11.2 48.8-30.4 95.2-56.8 136.8l44.8 44.8c3.2 3.2 4.8 7.2 4.8 11.2 0 4-1.6 8-4.8 11.2L813.6 928c-3.2 3.2-7.2 4.8-11.2 4.8-4 0-8-1.6-11.2-4.8l-44.8-44.8c-42.4 26.4-88 45.6-136.8 56.8v64c-0.8 8.8-8 16-16.8 16z m-145.6-32h130.4v-60.8c0-8 5.6-14.4 12.8-16 53.6-10.4 104-31.2 149.6-61.6 6.4-4 15.2-3.2 20 1.6l43.2 43.2 92-92-43.2-43.2c-5.6-5.6-6.4-13.6-1.6-20 30.4-45.6 51.2-96 61.6-149.6 1.6-7.2 8-12.8 16-12.8h60.8V447.2H928c-8 0-14.4-5.6-16-12.8-10.4-53.6-31.2-104-61.6-149.6-4-6.4-3.2-15.2 1.6-20l43.2-43.2-92-92-43.2 42.4c-5.6 5.6-13.6 6.4-20 1.6-45.6-30.4-95.2-51.2-149.6-61.6-7.2-1.6-12.8-8-12.8-16V36H447.2v60.8c0 8-5.6 14.4-12.8 16-53.6 10.4-104 31.2-149.6 61.6-6.4 4-15.2 3.2-20-1.6l-43.2-43.2-92 92 43.2 43.2c5.6 5.6 6.4 13.6 1.6 20-30.4 45.6-51.2 96-61.6 149.6-1.6 7.2-8 12.8-16 12.8H36v130.4h60.8c8 0 14.4 5.6 16 12.8 10.4 53.6 31.2 104 61.6 149.6 4 6.4 3.2 15.2-1.6 20l-43.2 43.2 92 92 43.2-43.2c5.6-5.6 13.6-6.4 20-1.6 45.6 30.4 95.2 51.2 149.6 61.6 7.2 1.6 12.8 8 12.8 16v60z" p-id="2642"></path><path d="M512 773.6c-93.6 0-180.8-50.4-227.2-132.8-1.6-3.2-1.6-6.4 0.8-8.8 56.8-67.2 139.2-105.6 226.4-105.6 87.2 0 169.6 38.4 226.4 105.6 2.4 2.4 2.4 6.4 0.8 8.8C692.8 722.4 605.6 773.6 512 773.6z m-210.4-136c44 74.4 124 120 210.4 120S678.4 712 722.4 638.4c-52.8-61.6-129.6-96-210.4-96-80.8 0-157.6 34.4-210.4 95.2zM512 497.6c-45.6 0-82.4-40.8-82.4-91.2 0-50.4 36.8-91.2 82.4-91.2 45.6 0 82.4 40.8 82.4 91.2 0 50.4-36.8 91.2-82.4 91.2z m0-166.4c-36.8 0-66.4 33.6-66.4 75.2s29.6 75.2 66.4 75.2c36.8 0 66.4-33.6 66.4-75.2s-29.6-75.2-66.4-75.2z" p-id="2643"></path></svg>