<?xml version="1.0" standalone="no"?><!DOCTYPE svg PUBLIC "-//W3C//DTD SVG 1.1//EN" "http://www.w3.org/Graphics/SVG/1.1/DTD/svg11.dtd"><svg t="1616551959253" class="icon" viewBox="0 0 1024 1024" version="1.1" xmlns="http://www.w3.org/2000/svg" p-id="1519" xmlns:xlink="http://www.w3.org/1999/xlink" width="200" height="200"><defs><style type="text/css"></style></defs><path d="M928.8 1020H95.2c-50.4 0-91.2-40.8-91.2-91.2V299.2C4 248.8 44.8 208 95.2 208H928c50.4 0 91.2 40.8 91.2 91.2v629.6c0.8 50.4-40 91.2-90.4 91.2zM95.2 239.2c-32.8 0-59.2 26.4-59.2 59.2V928c0 32.8 26.4 59.2 59.2 59.2H928c32.8 0 59.2-26.4 59.2-59.2V299.2c0-32.8-26.4-59.2-59.2-59.2H95.2z" p-id="1520"></path><path d="M713.6 239.2H310.4c-8.8 0-16-7.2-16-16V77.6c0-40.8 32.8-73.6 73.6-73.6h288.8c40.8 0 73.6 32.8 73.6 73.6V224c-0.8 8.8-8 15.2-16.8 15.2z m-387.2-32h372V77.6c0-23.2-18.4-41.6-41.6-41.6H367.2c-22.4 0-41.6 18.4-41.6 41.6v129.6zM730.4 388L604.8 596.8h71.2v62.4H562.4v35.2h113.6v62.4H562.4v82.4H456.8V756.8H341.6v-62.4h115.2v-35.2H341.6v-62.4h73.6L293.6 388h109.6l106.4 184 110.4-184h110.4m0-16H620.8c-5.6 0-11.2 3.2-13.6 8L510.4 540.8 417.6 380c-3.2-4.8-8-8-13.6-8H293.6c-5.6 0-11.2 3.2-13.6 8-3.2 4.8-3.2 11.2 0 16l107.2 184.8h-45.6c-8.8 0-16 7.2-16 16v62.4c0 8.8 7.2 16 16 16h99.2v3.2H341.6c-8.8 0-16 7.2-16 16v62.4c0 8.8 7.2 16 16 16h99.2v66.4c0 8.8 7.2 16 16 16h105.6c8.8 0 16-7.2 16-16v-66.4h97.6c8.8 0 16-7.2 16-16v-62.4c0-8.8-7.2-16-16-16H578.4v-3.2h97.6c8.8 0 16-7.2 16-16v-62.4c0-8.8-7.2-16-16-16h-43.2l110.4-184c1.6-2.4 2.4-5.6 2.4-8.8 0.8-8.8-6.4-16-15.2-16z" p-id="1521"></path></svg>