<?xml version="1.0" standalone="no"?><!DOCTYPE svg PUBLIC "-//W3C//DTD SVG 1.1//EN" "http://www.w3.org/Graphics/SVG/1.1/DTD/svg11.dtd"><svg t="1616551971510" class="icon" viewBox="0 0 1024 1024" version="1.1" xmlns="http://www.w3.org/2000/svg" p-id="1650" xmlns:xlink="http://www.w3.org/1999/xlink" width="200" height="200"><defs><style type="text/css"></style></defs><path d="M251.2 988.8H20c-8.8 0-16-7.2-16-16V396c0-8.8 7.2-16 16-16h231.2c8.8 0 16 7.2 16 16v577.6c0 8-7.2 15.2-16 15.2z m-215.2-32h199.2V412H36v544.8z" p-id="1651"></path><path d="M187.2 916.8c-4.8 0-8-3.2-8-8V468H84c-4.8 0-8-3.2-8-8s3.2-8 8-8h103.2c4.8 0 8 3.2 8 8v449.6c0 4-3.2 7.2-8 7.2zM628 988.8h-232c-8.8 0-16-7.2-16-16V51.2c0-8.8 7.2-16 16-16h231.2c8.8 0 16 7.2 16 16v922.4c0.8 8-6.4 15.2-15.2 15.2z m-216-32h199.2V67.2H412v889.6z" p-id="1652"></path><path d="M564 916.8c-4.8 0-8-3.2-8-8V123.2h-96c-4.8 0-8-3.2-8-8s3.2-8 8-8h103.2c4.8 0 8 3.2 8 8v794.4c0.8 4-3.2 7.2-7.2 7.2zM1004 988.8H772.8c-8.8 0-16-7.2-16-16v-720c0-8.8 7.2-16 16-16h231.2c8.8 0 16 7.2 16 16v720c0 8.8-7.2 16-16 16z m-215.2-32h199.2v-688H788.8v688z" p-id="1653"></path><path d="M940 916.8c-4.8 0-8-3.2-8-8v-584h-95.2c-4.8 0-8-3.2-8-8s3.2-8 8-8h103.2c4.8 0 8 3.2 8 8v592c0 4.8-3.2 8-8 8z" p-id="1654"></path></svg>