<?xml version="1.0" standalone="no"?><!DOCTYPE svg PUBLIC "-//W3C//DTD SVG 1.1//EN" "http://www.w3.org/Graphics/SVG/1.1/DTD/svg11.dtd"><svg t="1616551539516" class="icon" viewBox="0 0 1024 1024" version="1.1" xmlns="http://www.w3.org/2000/svg" p-id="1252" xmlns:xlink="http://www.w3.org/1999/xlink" width="200" height="200"><defs><style type="text/css"></style></defs><path d="M650.48 486.27c13.68 0 25.04-10.95 25.04-24.64 0-13.68-10.95-24.64-24.64-24.64h-71.92l73.48-73.52c9.35-9.39 9.35-25.04 0-34.39-9.35-9.35-25.04-9.39-34.39 0l-97.84 98.48-98.08-98.08c-9.53-9.41-24.86-9.41-34.39 0-9.35 9.56-9.35 24.84 0 34.4L460.86 437h-70.79c-13.65 0-24.6 10.95-24.6 24.64 0 13.69 10.95 24.64 24.6 24.64h105.58v61.4H390.06a24.52 24.52 0 0 0-17.45 7.19 24.447 24.447 0 0 0-7.15 17.46c0 13.65 10.95 24.6 24.6 24.6h105.58v129.02c0.43 13.22 11.22 23.75 24.45 23.84 13.23 0.1 24.17-10.27 24.8-23.48V596.87h105.59c13.69 0.09 24.89-10.91 25.04-24.6a24.517 24.517 0 0 0-24.64-24.64H544.89v-61.4h105.59v0.04z m0 0" p-id="1253"></path><path d="M169.17 476.88L252 437.39c8-3.63 13.42-11.29 14.21-20.04a24.39 24.39 0 0 0-10.43-22.24c-7.22-5-16.58-5.72-24.49-1.9l-37.16 17.57c45.37-141.47 177.1-237.31 325.67-236.94 167.12-0.46 309.96 120.21 337.43 285.06 2.25 11.66 12.37 20.15 24.24 20.35 1.56 0 2.73 0 4.29-0.4a24.362 24.362 0 0 0 15.82-9.94 24.345 24.345 0 0 0 4.12-18.23 392.404 392.404 0 0 0-131.75-232.24 391.876 391.876 0 0 0-253.79-93.47 391.425 391.425 0 0 0-253.71 93.47 392.183 392.183 0 0 0-131.76 232.24c-1.63 8.96 2 18.06 9.35 23.44 7.2 5.56 16.91 6.63 25.13 2.76z m727.24 80.95a24.675 24.675 0 0 0-25.81-1.97l-82.91 43.42c-10.92 6.73-14.76 20.78-8.76 32.12 6 11.34 19.76 16.09 31.48 10.86l34.79-18.38c-46.15 140.24-177.36 234.8-324.99 234.22-167.1 0.48-309.94-120.19-337.39-285.02-2.26-13.28-14.86-22.21-28.13-19.94-13.28 2.26-22.21 14.85-19.94 28.13A392.194 392.194 0 0 0 266.5 813.52a391.569 391.569 0 0 0 253.72 93.46 395.18 395.18 0 0 0 254.19-93.07 392.301 392.301 0 0 0 131.75-232.24 24.586 24.586 0 0 0-9.75-23.84z m0 0" p-id="1254"></path></svg>