<?xml version="1.0" standalone="no"?><!DOCTYPE svg PUBLIC "-//W3C//DTD SVG 1.1//EN" "http://www.w3.org/Graphics/SVG/1.1/DTD/svg11.dtd"><svg t="1616550984389" class="icon" viewBox="0 0 1024 1024" version="1.1" xmlns="http://www.w3.org/2000/svg" p-id="1121" xmlns:xlink="http://www.w3.org/1999/xlink" width="200" height="200"><defs><style type="text/css"></style></defs><path d="M501.55008 825.94304v-34.01216l-4.5056-0.19456c-41.74336-1.8176-78.97088-21.23776-105.15456-46.1824l20.08576-21.8112c23.77216 22.38976 52.0192 35.36384 86.23104 39.58784l5.28384 0.65536v-113.52064l-4.2496-1.98144c-55.99744-13.50656-98.7648-27.83744-98.7648-76.80512 0-42.59328 38.83008-78.16704 96.62464-81.5104l4.43904-0.26112v-33.9456h27.76576v35.42528l4.24448 0.41984c31.91808 3.13856 64.82944 19.55328 88.58112 39.5008l-19.86048 20.16256c-17.18272-14.47424-42.92608-24.36608-67.30752-29.44l-5.66784-1.18272v103.72608l4.32128 2.09408c45.9776 11.64288 99.51744 28.48256 99.51744 80.128 0 9.02656-1.77152 26.61888-13.55264 42.99264-15.26272 21.1712-46.67392 33.70496-84.0704 37.24288l-4.26496 0.39936v38.2208l-29.696 0.29184z m29.81376-63.35488l10.19904-0.93184c51.69152-8.73472 57.27232-40.04352 57.27232-53.08928 0-33.26976-36.84352-44.8768-56.64256-51.10784l-10.8288-1.92v107.04896z m-32.72192-244.13696c-36.89984 1.98144-61.696 22.00064-61.696 49.82784 0 28.62592 28.70784 38.92224 60.69248 47.744l5.9648 1.64864v-99.48672l-4.96128 0.26624z" p-id="1122"></path><path d="M875.4176 628.6592c-53.3504-121.91232-204.08832-253.70112-210.43712-259.30752-2.048-1.83296-4.08576-3.14368-6.03648-4.45952-1.8432-1.22368-3.6864-2.45248-5.53472-4.02432l-4.7104-4.11136c8.91392 5.248 18.02752 7.78752 28.26752 7.78752 19.66592 0 37.2736-9.79968 45.06112-24.92416l0.09728-0.26624c66.66752 11.45856 105.99424 30.69952 113.77152 55.71072 2.15552 9.18528 10.6496 15.1296 21.81632 15.1296h4.39808c5.83168-1.0496 11.06432-4.54656 13.93664-9.2672 2.65728-4.37248 3.16928-9.35936 1.32096-13.55776-5.01248-18.19136-17.1008-33.8432-36.03968-46.70464-18.73408-12.67712-44.6464-22.912-77.20448-30.52032 22.4256-18.36032 37.4784-38.0416 39.5264-51.94752 2.05312-9.27232-6.13888-19.06176-17.51552-21.07904-5.31456-0.96256-10.84928 0.26112-15.55456 3.32288-4.40832 2.88256-7.68512 7.168-8.704 11.89376-1.64864 8.48384-25.70752 32.09728-43.9296 43.20256l-2.24768-2.01216c-10.34752-12.42112-24.79104-19.32288-40.76544-19.32288-12.89216 0-24.7808 4.28032-32.86528 11.71968 3.68128-4.54144 6.7584-6.99392 7.87968-7.43424h0.82944l10.33728-9.0112c7.68-4.98688 15.5648-10.05568 23.35232-16.88064 41.16992-27.98592 83.66592-57.02144 93.90592-81.9456 3.68128-7.95648 5.84192-13.37856 6.03648-17.2288 5.63712-12.76928 3.16928-22.99904-6.8608-27.5456-3.8912-3.41504-8.39168-7.168-18.944-7.168-7.87968 0-13.824 1.57184-24.1664 5.16096-21.9136 7.08608-38.912 8.832-50.5856 5.07904-11.4688-4.98688-23.14752-11.81184-34.5088-18.36544-24.1664-15.22176-48.53248-29.12256-80.99328-30.61248-24.38144-1.48992-44.03712 4.89984-63.08352 11.10528-2.65216 0.78848-5.31968 1.66912-7.9872 2.53952l-3.8912 1.39776c-17.6128 6.12352-34.29888 11.9808-57.344 11.9808-23.96672 0-52.0192-3.67104-71.4752-6.7328h-0.2048c-8.6016-0.69632-16.4864-1.664-24.1664-2.53952-10.752-1.31072-20.992-2.53952-30.4128-2.53952-5.632 0-10.6496 0-13.7216 1.31072-3.1744-1.664-6.34368-4.6336-9.51808-8.832-0.3072-0.44032-0.7168-0.96256-1.01888-1.39776-3.58912-4.89984-8.50432-11.45856-20.48512-11.45856-4.70528 0-11.1616 3.67616-15.36 7.35232l-0.20992 0.26112c-6.656 7.60832-6.34368 8.22784 5.43232 42.50624l1.8432 4.72064c0 1.57184 0.10752 3.58912 1.9456 5.50912v1.31072c7.9872 36.81792 19.968 61.83424 37.4784 78.80192l0.1024 0.09216c1.8432 1.65888 3.7888 3.75808 5.632 5.77024 1.9456 2.0992 3.89632 4.28544 5.94432 6.03648 16.68608 17.664 41.56928 44.16512 53.4528 70.75328-1.8432 0-3.9936 0.17408-7.4752 1.664-2.4576 0.09216-4.70528 0.70144-6.5536 1.14176-1.01888 0.26624-2.14528 0.52224-2.55488 0.52224h-0.512c-5.3248 0.87552-9.9328 3.67104-12.8 7.69536a16.50176 16.50176 0 0 0-2.7648 13.37856c1.12128 4.63872 4.1984 8.57088 8.90368 11.10528 4.5056 2.44736 9.8304 3.32288 15.1552 2.44736 2.2528-0.08192 3.89632-0.52224 5.4272-0.95744 1.33632-0.34816 2.56-0.69632 4.096-0.69632 1.54112 0 3.3792 0 5.3248-0.87552-0.2048 9.8816-2.35008 17.23392-7.26016 24.40192-2.05312 1.66912-3.4816 3.41504-4.9152 5.07392-1.3312 1.664-2.7648 3.24096-4.5056 4.8128-94.82752 70.66624-167.63392 160.9216-210.5344 261.05856-39.6288 90.26048-42.9056 127.77472-42.9056 161.27488 0 19.40992 0 59.72992 29.696 94.18752 35.7376 41.3696 103.63392 62.70464 201.8304 63.4112 186.5728 1.664 224.16384 1.664 324.61824 1.664h31.12448c96.0512-0.70144 163.02592-21.86752 199.168-62.7968 29.70112-33.75616 31.5392-73.37472 32.4608-94.62272l0.1024-1.83808c-0.0512-32.91648-3.22048-72.52992-41.0112-161.31072z m-200.9088-335.40096c21.82656 0 39.52128 11.81696 39.52128 26.3936 0 14.57664-17.69472 26.3936-39.52128 26.3936-21.8368 0-39.5264-11.81696-39.5264-26.3936 0.00512-14.58176 17.69984-26.3936 39.5264-26.3936zM335.19616 201.28768l-1.39264-1.47456-1.54112-1.31584c-0.52224-0.50176-1.20832-1.29536-1.91488-2.06336l-0.82944-0.90112a123.81184 123.81184 0 0 0-7.59296-7.74144c-10.46016-10.37312-18.5088-27.10016-24.4992-50.944l9.35936-3.9936c0.96768-0.01024 2.06336-0.01024 2.97984-0.01024 7.35232 0 16.75264 1.152 25.85088 2.2528l3.94752 0.45568c6.53824 0.75264 13.28128 1.53088 20.75136 2.15552 29.62944 4.60288 55.0912 6.9376 75.70944 6.9376 29.25056 0 50.56-7.41376 69.36576-13.952l4.10624-1.46944c2.19648-0.72192 4.34176-1.42848 6.48192-2.06336l0.94208-0.29696c15.58528-5.07904 29.04576-9.46688 44.26752-9.46688 1.5872 0 3.20512 0.04608 4.84352 0.14848l0.56832 0.03072c23.16288 1.05984 41.3184 11.4176 62.65344 24.85248l1.24928 0.75264 1.54112 0.89088c11.72992 6.77376 23.8592 13.77792 36.77184 19.39456l1.71008 0.7424 1.77152 0.56832c7.72096 2.47808 16.27136 3.74272 25.42592 3.74272 12.64128 0 26.624-2.31424 42.61888-7.07072-12.65152 16.19456-53.82656 44.19584-77.06624 59.99616l-1.90976 1.30048-1.73568 1.51552c-5.52448 4.84864-11.48416 8.71424-18.39104 13.19936l-2.88256 1.8688-7.75168 6.7584c-4.39296 2.56-10.60352 15.61088-17.78688 24.48896H389.632c-14.95552-31.6928-37.75488-51.63008-54.43584-69.28896zM403.89632 323.072l-1.46432-14.81728h211.94752s-2.91328 10.75712-2.49344 18.40128c0.53248 9.97888 7.19872 20.82816 7.19872 20.82816l-219.5712-1.51552c0.4864-3.34848 5.76-13.6192 4.38272-22.89664z m474.752 467.07712c-0.768 17.74592-2.05312 47.44704-23.10656 71.3728-28.32896 32.08192-87.48032 49.38752-171.02848 50.01216h-30.98624c-100.33664 0-137.87136 0-324.28032-1.66912-85.69344-0.60416-145.72544-18.0224-173.66528-50.36032-20.5312-23.82848-20.5312-52.45952-20.5312-69.56544 0-29.32736 3.04128-62.5664 39.72608-146.13504 40.41728-94.31552 109.02528-179.2768 198.5536-245.99552l1.43872-1.07008 1.3312-1.19808a77.85472 77.85472 0 0 0 8.14592-8.6016l0.5376-0.62464 3.44064-2.7904 235.71968 1.62816 4.71552 4.10624a90.40384 90.40384 0 0 0 9.46688 7.02464l0.49152 0.32256c0.50176 0.33792 1.02912 0.66048 1.55136 1.06496 15.69792 13.83424 152.76544 136.448 200.7552 246.0928 34.45248 80.94208 37.72416 116.29056 37.80096 145.12128l-0.0768 1.26464z" p-id="1123"></path></svg>